<svg fill="none" height="26" viewBox="0 0 136 26" width="136" xmlns="http://www.w3.org/2000/svg"><g fill="#ffc700"><path d="m11.8991 2.60809c.2367-.72847 1.2672-.72847 1.5039 0l1.9109 5.88092c.1058.32578.4094.54635.752.54635h6.1835c.766 0 1.0844.98014.4648 1.43034l-5.0026 3.6346c-.2772.2014-.3931.5583-.2873.8841l1.9109 5.8809c.2366.7284-.5971 1.3342-1.2168.884l-5.0026-3.6346c-.2771-.2014-.6524-.2014-.9295 0l-5.00261 3.6346c-.61968.4502-1.45345-.1556-1.21675-.884l1.91082-5.8809c.10586-.3258-.0101-.6827-.28723-.8841l-5.00261-3.6346c-.61967-.4502-.3012-1.43034.46476-1.43034h6.18356c.34255 0 .64614-.22057.75199-.54635z"/><path d="m39.7454 2.60809c.2367-.72847 1.2673-.72847 1.504 0l1.9108 5.88092c.1059.32578.4095.54635.752.54635h6.1836c.7659 0 1.0844.98014.4647 1.43034l-5.0026 3.6346c-.2771.2014-.3931.5583-.2872.8841l1.9108 5.8809c.2367.7284-.5971 1.3342-1.2167.884l-5.0026-3.6346c-.2772-.2014-.6524-.2014-.9296 0l-5.0026 3.6346c-.6196.4502-1.4534-.1556-1.2167-.884l1.9108-5.8809c.1059-.3258-.0101-.6827-.2872-.8841l-5.0026-3.6346c-.6197-.4502-.3012-1.43034.4647-1.43034h6.1836c.3425 0 .6461-.22057.752-.54635z"/><path d="m67.1942 2.6898c.2322-.73772 1.2762-.73772 1.5084 0l1.8233 5.79227c.1036.3293.4089.55329.7542.55329h5.9521c.7598 0 1.0823.96734.4744 1.42324l-4.8581 3.6435c-.2684.2013-.3805.55-.2798.8699l1.8453 5.8627c.2307.7329-.6139 1.331-1.2286.87l-4.7626-3.5719c-.2811-.2108-.6676-.2108-.9488 0l-4.7626 3.5719c-.6147.461-1.4593-.1371-1.2286-.87l1.8454-5.8627c.1007-.3199-.0114-.6686-.2798-.8699l-4.8581-3.6435c-.6079-.4559-.2855-1.42324.4744-1.42324h5.9521c.3452 0 .6506-.22399.7542-.55329z"/><path d="m94.6475 2.60809c.2367-.72847 1.2673-.72847 1.504 0l1.9108 5.88092c.1058.32578.4094.54635.752.54635h6.1837c.766 0 1.084.98014.465 1.43034l-5.003 3.6346c-.277.2014-.393.5583-.287.8841l1.911 5.8809c.236.7284-.598 1.3342-1.217.884l-5.0028-3.6346c-.2771-.2014-.6524-.2014-.9295 0l-5.0026 3.6346c-.6197.4502-1.4534-.1556-1.2167-.884l1.9108-5.8809c.1058-.3258-.0101-.6827-.2873-.8841l-5.0026-3.6346c-.6196-.4502-.3012-1.43034.4648-1.43034h6.1836c.3425 0 .6461-.22057.7519-.54635z"/><path d="m122.494 2.60809c.237-.72847 1.267-.72847 1.504 0l1.911 5.88092c.106.32578.409.54635.752.54635h6.183c.766 0 1.085.98014.465 1.43034l-5.003 3.6346c-.277.2014-.393.5583-.287.8841l1.911 5.8809c.237.7284-.597 1.3342-1.217.884l-5.002-3.6346c-.278-.2014-.653-.2014-.93 0l-5.003 3.6346c-.619.4502-1.453-.1556-1.216-.884l1.911-5.8809c.105-.3258-.011-.6827-.288-.8841l-5.002-3.6346c-.62-.4502-.301-1.43034.464-1.43034h6.184c.343 0 .646-.22057.752-.54635z"/></g></svg>