<svg enable-background="new 0 0 512 512" height="512" viewBox="0 0 512 512" width="512" xmlns="http://www.w3.org/2000/svg"><g fill="#3b82f6"><path d="m386.689 304.403c-35.587 0-64.538 28.951-64.538 64.538s28.951 64.538 64.538 64.538c35.593 0 64.538-28.951 64.538-64.538s-28.951-64.538-64.538-64.538zm0 96.807c-17.796 0-32.269-14.473-32.269-32.269s14.473-32.269 32.269-32.269 32.269 14.473 32.269 32.269c0 17.797-14.473 32.269-32.269 32.269z" xmlns="http://www.w3.org/2000/svg"/><path d="m166.185 304.403c-35.587 0-64.538 28.951-64.538 64.538s28.951 64.538 64.538 64.538 64.538-28.951 64.538-64.538-28.951-64.538-64.538-64.538zm0 96.807c-17.796 0-32.269-14.473-32.269-32.269s14.473-32.269 32.269-32.269c17.791 0 32.269 14.473 32.269 32.269 0 17.797-14.473 32.269-32.269 32.269z" xmlns="http://www.w3.org/2000/svg"/><path d="m430.15 119.675c-2.743-5.448-8.32-8.885-14.419-8.885h-84.975v32.269h75.025l43.934 87.384 28.838-14.5z" xmlns="http://www.w3.org/2000/svg"/><path d="m216.202 353.345h122.084v32.269h-122.084z" xmlns="http://www.w3.org/2000/svg"/><path d="m117.781 353.345h-55.932c-8.912 0-16.134 7.223-16.134 16.134 0 8.912 7.223 16.134 16.134 16.134h55.933c8.912 0 16.134-7.223 16.134-16.134 0-8.912-7.223-16.134-16.135-16.134z" xmlns="http://www.w3.org/2000/svg"/><path d="m508.612 254.709-31.736-40.874c-3.049-3.937-7.755-6.239-12.741-6.239h-117.244v-112.941c0-8.912-7.223-16.134-16.134-16.134h-268.908c-8.912 0-16.134 7.223-16.134 16.134s7.223 16.134 16.134 16.134h252.773v112.941c0 8.912 7.223 16.134 16.134 16.134h125.478l23.497 30.268v83.211h-44.639c-8.912 0-16.134 7.223-16.134 16.134 0 8.912 7.223 16.134 16.134 16.134h60.773c8.912 0 16.134-7.223 16.135-16.134v-104.872c0-3.582-1.194-7.067-3.388-9.896z" xmlns="http://www.w3.org/2000/svg"/><path d="m116.706 271.597h-74.219c-8.912 0-16.134 7.223-16.134 16.134 0 8.912 7.223 16.134 16.134 16.134h74.218c8.912 0 16.134-7.223 16.134-16.134.001-8.911-7.222-16.134-16.133-16.134z" xmlns="http://www.w3.org/2000/svg"/><path d="m153.815 208.134h-137.681c-8.911 0-16.134 7.223-16.134 16.135s7.223 16.134 16.134 16.134h137.681c8.912 0 16.134-7.223 16.134-16.134s-7.222-16.135-16.134-16.135z" xmlns="http://www.w3.org/2000/svg"/><path d="m180.168 144.672h-137.681c-8.912 0-16.134 7.223-16.134 16.134 0 8.912 7.223 16.134 16.134 16.134h137.681c8.912 0 16.134-7.223 16.134-16.134.001-8.911-7.222-16.134-16.134-16.134z" xmlns="http://www.w3.org/2000/svg"/></g></svg>