<svg height="156.749997pt" viewBox="0 0 375 156.749997" width="375pt" xmlns="http://www.w3.org/2000/svg" xmlns:xlink="http://www.w3.org/1999/xlink"><symbol id="a" overflow="visible"><path d="m68.238281-84.992188h-65.6875v17.117188h23.675781v67.875h18.335938v-67.875h23.675781zm0 0"/></symbol><symbol id="b" overflow="visible"><path d="m28.046875-17v-17.484375h29.503906v-16.632813h-29.503906v-16.878906h32.664063v-16.996094h-50.996094v84.992188h52.332031v-17zm0 0"/></symbol><symbol id="c" overflow="visible"><path d="m28.046875-17v-67.992188h-18.332031v84.992188h50.996094v-17zm0 0"/></symbol><symbol id="d" overflow="visible"><path d="m80.5-84.992188h-19.667969l-19.671875 34.117188-19.546875-34.117188h-19.550781l29.628906 50.628907v34.363281h18.820313v-34.238281zm0 0"/></symbol><g fill="#fff"><use x="13.513821" xlink:href="#a" y="111.56338"/><use x="84.418313" xlink:href="#b" y="111.56338"/><use x="152.287512" xlink:href="#c" y="111.56338"/><use x="215.664482" xlink:href="#c" y="111.56338"/><use x="279.041441" xlink:href="#d" y="111.56338"/></g></svg>