
<svg width="28" height="28" fill="none" xmlns="http://www.w3.org/2000/svg"><g clip-path="url(#clip0)"><path d="M13.999 2.813C13.566 1.735 12.513.571 10.54.73c-2.512.273-3.296 2.679-2.916 4.113-1-.676-2.702-.974-4.188.297-1.918 1.92-.892 4.517.162 5.14-1.162-.108-2.998.677-3.404 2.728-.432 2.547 1.512 4.032 3.404 4.032h20.99c2.19 0 3.404-1.892 3.268-3.675-.215-2.328-2.348-3.222-3.511-3.03.972-.542 2.27-3.086.296-5.086-1.567-1.489-3.564-.947-4.267-.298.379-1.244-.242-3.814-2.783-4.22a4.57 4.57 0 00-.506-.03c-1.94 0-2.813 1.416-3.086 2.112z" fill="#fff"/><path d="M3.787 5.545c-1.108 1.002-1.511 3.272.486 4.6l7.97 5.46-3.864-8.842c-.81-2.086-3.025-2.541-4.592-1.218z" fill="#F37021"/><path d="M10.647 1.246c-1.295.026-3.24 1.567-2.375 3.92l3.997 9.414 1.405-9.902c.325-2.46-1.54-3.596-3.027-3.432z" fill="#CC004C"/><path d="M14.297 4.3h.755s.404 0 .459.19c-.298.243-1.107.274-1 1.57l1.27 8.52 3.97-9.44c.812-2.108-.892-3.868-2.404-3.922a2.964 2.964 0 00-.215-.009c-1.357 0-2.912.985-2.835 3.092z" fill="#6460AA"/><path d="M19.591 6.844l-3.754 8.736 7.967-5.49c1.837-1.301 1.54-3.381.513-4.41-.431-.484-1.223-.857-2.06-.857-.991 0-2.051.524-2.666 2.02z" fill="#0089D0"/><path d="M22.913 11.333l-7.482 5.22h9.213c1.89 0 3.104-1.947 2.565-3.733-.362-1.123-1.432-2.004-2.674-2.005-.523 0-1.077.157-1.622.518z" fill="#0DB14B"/><path d="M3.572 16.553h9.077l-7.485-5.22c-1.729-1.11-3.673-.46-4.375 1.38-.595 2.109.89 3.84 2.783 3.84z" fill="#FCB711"/><path d="M13.624 23.695h1.684c.387.024 1.073.362 1.073 1.161 0 .836-.712 1.174-1.098 1.212h-1.66v-2.373zm-.026-3.722h1.386c.474.025 1.034.375 1.034 1.024 0 .637-.424 1.061-.972 1.137h-1.448v-2.161zm-1.895-1.55v9.193h4.466c1.06 0 2.32-1.061 2.32-2.448 0-1.448-.948-2.16-1.548-2.447 0 0 1.098-.637 1.05-2.011-.05-1.849-1.76-2.286-2.346-2.286h-3.942zM4.854 27.616V22.32l5.788 5.644v-9.541H8.697v5.158L2.908 18.05v9.566h1.946zM18.802 22.92c.049 2.907 2.14 5.08 4.828 5.08.637 0 1.309-.12 1.995-.384v-1.873a3.343 3.343 0 01-1.742.492c-1.627 0-3.162-1.203-3.098-3.39a3.164 3.164 0 013.13-2.999c.574 0 1.165.166 1.71.526V18.55a4.978 4.978 0 00-1.877-.373c-2.682 0-4.895 2.259-4.946 4.743z" fill="#000"/></g><defs><clipPath id="clip0"><path fill="#fff" d="M.134.7h27.733V28H.134z"/></clipPath></defs></svg>