<svg height="288" width="288" xmlns="http://www.w3.org/2000/svg"><svg enable-background="new 0 0 60.01 60.01" height="288" viewBox="0 0 60.01 60.01" width="288" xmlns="http://www.w3.org/2000/svg"><path d="m40.224 0h-20.439c-3.584 0-6.5 2.893-6.5 6.449v47.113c0 3.554 2.916 6.448 6.5 6.448h20.438c3.584 0 6.501-2.894 6.501-6.448v-47.113c.001-3.556-2.916-6.449-6.5-6.449zm4.352 53.562c0 2.37-1.952 4.299-4.352 4.299h-20.439c-2.399 0-4.351-1.929-4.351-4.299v-47.113h.001c0-2.371 1.952-4.299 4.351-4.299h20.438c2.399 0 4.352 1.928 4.352 4.299.001 0 .001 47.113 0 47.113zm-2.21-47.247h-24.72c-.297 0-.537.24-.537.537v41.753c0 .296.24.538.537.538h24.72c.297 0 .538-.241.538-.538v-41.753c-.001-.297-.241-.537-.538-.537zm-.537 41.752h-23.647v-40.678h23.646s0 40.678.001 40.678zm-11.823 1.971c-1.811 0-3.285 1.473-3.285 3.284s1.474 3.284 3.285 3.284 3.283-1.474 3.283-3.284c0-1.811-1.472-3.284-3.283-3.284zm0 5.493c-1.219 0-2.21-.991-2.21-2.209s.991-2.21 2.21-2.21c1.218 0 2.209.992 2.209 2.21s-.991 2.209-2.209 2.209zm-3.555-51.327c0-.219.214-.396.478-.396h6.151c.264 0 .477.177.477.396s-.212.396-.476.396h-6.151c-.263 0-.478-.177-.479-.396z" fill="#fff"/></svg></svg>