<svg width="32" height="32" fill="none" xmlns="http://www.w3.org/2000/svg"><path d="M16.18 31.77c8.61 0 15.59-6.98 15.59-15.59S24.79.59 16.18.59.59 7.57.59 16.18s6.98 15.59 15.59 15.59z" fill="#1EA3FF"/><path d="M5.123 13.518v-3.181h1.42v2.76c0 .546.062 1.077.78 1.077.717 0 .78-.53.78-1.077v-2.76H9.52v3.166c0 1.232-.78 1.903-2.199 1.903-1.45.015-2.199-.67-2.199-1.888zM9.896 14.688l.686-.951c.25.312.686.577 1.17.577.374 0 .592-.156.592-.452 0-.343-.312-.453-.858-.609-.717-.218-1.357-.592-1.357-1.45 0-.936.78-1.576 1.872-1.576.764 0 1.326.234 1.7.578l-.64.951a1.298 1.298 0 00-.982-.437c-.374 0-.53.156-.53.343 0 .312.374.39.78.53.81.25 1.435.625 1.435 1.545 0 .951-.687 1.669-1.934 1.669-.92.015-1.623-.375-1.934-.718zM15.667 10.337h1.56l1.855 4.975h-1.481l-.234-.717h-1.872l-.234.717h-1.45c.015 0 1.856-4.975 1.856-4.975zm1.341 3.135l-.39-1.201a4.682 4.682 0 01-.171-.749H16.4a4.672 4.672 0 01-.172.749l-.39 1.2h1.17zM6.362 18.218H5.13v-1.154h3.884v1.154H7.78v3.821H6.362v-3.821zM9.107 19.559c0-1.232.874-2.59 2.73-2.59 1.856 0 2.73 1.373 2.73 2.59 0 1.217-.874 2.574-2.73 2.574-1.856.015-2.73-1.342-2.73-2.574zm4.009 0c0-.89-.577-1.357-1.279-1.357-.686 0-1.263.468-1.263 1.357s.577 1.341 1.263 1.341c.686 0 1.279-.452 1.279-1.341zM15.081 17.064h1.84c1.763 0 2.761.935 2.761 2.495 0 1.529-1.03 2.496-2.76 2.496h-1.84v-4.991zm1.435 3.836h.312c.92 0 1.404-.436 1.404-1.34 0-.906-.484-1.342-1.404-1.342h-.312V20.9zM21.337 17.064h1.56l1.855 4.975h-1.481l-.234-.718h-1.872l-.234.718h-1.45c.015 0 1.856-4.976 1.856-4.976zm1.34 3.134l-.389-1.2a4.672 4.672 0 01-.172-.75h-.046a4.671 4.671 0 01-.172.75l-.39 1.2h1.17zM25.438 20.277l-1.856-3.198h1.56l.67 1.232c.14.265.344.655.39.92h.032c.046-.265.233-.655.39-.92l.67-1.232h1.513l-1.856 3.198v1.778h-1.497v-1.778h-.016z" fill="#fff"/></svg>